Coordinates
version=1
nRows=12
nColumns=23
inDegrees=yes

Units are S.I. units (second, meters, Newtons, ...)
If the header above contains a line with 'inDegrees', this indicates whether rotational values are in degrees (yes) or radians (no).

endheader
time	pelvis_tilt	pelvis_list	pelvis_rotation	pelvis_tx	pelvis_ty	pelvis_tz	hip_flexion_r	hip_adduction_r	hip_rotation_r	knee_angle_r	knee_angle_r_beta	ankle_angle_r	subtalar_angle_r	mtp_angle_r	hip_flexion_l	hip_adduction_l	hip_rotation_l	knee_angle_l	knee_angle_l_beta	ankle_angle_l	subtalar_angle_l	mtp_angle_l
      0.00000000	     -3.12447150	      3.82664749	     -0.74263333	      2.14960352	      1.00269554	      1.02353942	    -18.55395775	     -2.44965653	    -11.41610448	     19.74662622	      0.34464364	    -11.06558197	      3.74078920	      0.00000000	     39.78542536	      1.71154644	     -7.29173676	     62.00366383	      1.08216808	     -1.90922303	    -12.09455052	      0.00000000
      0.00666667	     -3.95863735	      3.67441902	     -0.10499087	      2.15077735	      1.00521589	      1.02257667	    -18.32480946	     -2.32033531	    -12.61088560	     20.19155473	      0.35240911	    -13.54210929	      3.35279536	      0.00000000	     40.34829863	      1.68985064	     -7.69066027	     57.88949731	      1.01036233	     -2.23940978	    -10.58813530	      0.00000000
      0.01333333	     -4.76485013	      3.59454648	      0.55516461	      2.15203996	      1.00754976	      1.02149339	    -18.13202975	     -2.26949876	    -13.79956484	     20.67469632	      0.36084152	    -15.86780775	      2.92519887	      0.00000000	     40.67690287	      1.86188939	     -8.11454826	     53.50990150	      0.93392396	     -2.39498620	     -8.82267325	      0.00000000
      0.02000000	     -5.41352402	      3.59103504	      1.15592875	      2.15332339	      1.00971966	      1.02037342	    -18.05586111	     -2.33904750	    -14.93286039	     21.30347966	      0.37181586	    -17.87579474	      2.39021664	      0.00000000	     40.66272675	      2.17683809	     -8.61200274	     48.96674071	      0.85463085	     -2.43112492	     -6.72122327	      0.00000000
      0.02666667	     -5.89138467	      3.58076751	      1.64730347	      2.15457536	      1.01177823	      1.01928961	    -18.06127856	     -2.39933184	    -15.67277543	     22.13087586	      0.38625665	    -19.31488761	      1.99184042	      0.00000000	     40.31384878	      2.47120955	     -9.25884529	     44.31894931	      0.77351159	     -2.24068979	     -4.21105437	      0.00000000
      0.03333333	     -6.44220684	      3.50220044	      2.19574032	      2.15570789	      1.01322959	      1.01794635	    -17.87805433	     -2.36637768	    -16.18316372	     23.19507016	      0.40483034	    -20.29389897	      1.42766564	      0.00000000	     39.99166457	      2.91294106	     -9.60948893	     39.71060764	      0.69308085	     -2.05234150	     -1.75783292	      0.00000000
      0.04000000	     -6.82070784	      3.42685152	      2.66904755	      2.15677170	      1.01440364	      1.01657435	    -17.73314484	     -2.35687342	    -16.43326985	     24.55463385	      0.42855921	    -20.63451041	      1.10626416	      0.00000000	     39.42841972	      3.34386623	    -10.07170451	     35.23073919	      0.61489240	     -1.55646622	      1.22483845	      0.00000000
      0.04666667	     -7.29972615	      3.25507187	      3.26172736	      2.15761252	      1.01494388	      1.01490561	    -17.35825822	     -2.16251822	    -16.37873876	     26.12559427	      0.45597764	    -20.56302101	      0.37635495	      0.00000000	     38.95369223	      3.98370920	     -9.83954988	     30.86205232	      0.53864443	     -1.04290485	      3.57861096	      0.00000000
      0.05333333	     -7.51083325	      3.22851528	      3.68540115	      2.15813443	      1.01525157	      1.01338238	    -17.00868715	     -2.22735859	    -16.23763674	     28.22580009	      0.49263315	    -20.16111653	     -0.20509883	      0.00000000	     38.13823110	      4.67848768	     -9.68536550	     26.64038066	      0.46496236	     -0.49926589	      5.99755506	      0.00000000
      0.06000000	     -7.68710589	      3.21294024	      4.11194689	      2.15853385	      1.01510584	      1.01187833	    -16.55477229	     -2.34844249	    -16.16601766	     30.60351334	      0.53413207	    -19.35638835	     -0.38416362	      0.00000000	     37.24948813	      5.43996120	     -9.18744277	     22.63111587	      0.39498749	      0.13904366	      8.01428415	      0.00000000
      0.06666667	     -7.84900838	      3.13732524	      4.59437637	      2.15874007	      1.01445844	      1.01041561	    -15.98937612	     -2.33508427	    -15.94189766	     33.15983147	      0.57874824	    -18.51151516	     -1.00406711	      0.00000000	     36.39658240	      6.14544437	     -8.46361010	     19.03223834	      0.33217522	      0.81944839	      9.95097971	      0.00000000
      0.07333333	     -7.86565705	      3.33141795	      5.04392656	      2.15878343	      1.01357265	      1.00907249	    -15.41879094	     -2.79101756	    -16.19960021	     36.13946389	      0.63075263	    -17.49010362	     -0.84775610	      0.00000000	     35.05167051	      7.24007823	     -6.75116818	     15.07742259	      0.26315067	      0.91791378	      9.97390774	      0.00000000
